<mxfile host="app.diagrams.net" modified="2022-08-30T02:14:48.309Z" agent="5.0 (X11)" etag="M38HD9AgvGN0_YmYJnBq" version="20.2.7" type="github">
  <diagram id="hfAk_OXyJQQxwG7nu-DQ" name="第 1 页">
    <mxGraphModel dx="1038" dy="556" grid="1" gridSize="10" guides="1" tooltips="1" connect="1" arrows="1" fold="1" page="1" pageScale="1" pageWidth="3300" pageHeight="4681" math="0" shadow="0">
      <root>
        <mxCell id="0" />
        <mxCell id="1" parent="0" />
        <mxCell id="XuAN8jisEqfrrQAx59qb-3" style="edgeStyle=orthogonalEdgeStyle;rounded=0;orthogonalLoop=1;jettySize=auto;html=1;exitX=1;exitY=0.5;exitDx=0;exitDy=0;entryX=0;entryY=0.5;entryDx=0;entryDy=0;" edge="1" parent="1" source="XuAN8jisEqfrrQAx59qb-1" target="XuAN8jisEqfrrQAx59qb-2">
          <mxGeometry relative="1" as="geometry" />
        </mxCell>
        <mxCell id="XuAN8jisEqfrrQAx59qb-1" value="&lt;div&gt;实时数据块&lt;/div&gt;&lt;div&gt;x0200&lt;br&gt;&lt;/div&gt;" style="rounded=0;whiteSpace=wrap;html=1;" vertex="1" parent="1">
          <mxGeometry x="160" y="240" width="120" height="80" as="geometry" />
        </mxCell>
        <mxCell id="XuAN8jisEqfrrQAx59qb-5" style="edgeStyle=orthogonalEdgeStyle;rounded=0;orthogonalLoop=1;jettySize=auto;html=1;exitX=0.5;exitY=0;exitDx=0;exitDy=0;entryX=0;entryY=0.5;entryDx=0;entryDy=0;" edge="1" parent="1" source="XuAN8jisEqfrrQAx59qb-2" target="XuAN8jisEqfrrQAx59qb-4">
          <mxGeometry relative="1" as="geometry" />
        </mxCell>
        <mxCell id="XuAN8jisEqfrrQAx59qb-7" style="edgeStyle=orthogonalEdgeStyle;rounded=0;orthogonalLoop=1;jettySize=auto;html=1;exitX=0.5;exitY=1;exitDx=0;exitDy=0;entryX=0;entryY=0.5;entryDx=0;entryDy=0;" edge="1" parent="1" source="XuAN8jisEqfrrQAx59qb-2" target="XuAN8jisEqfrrQAx59qb-6">
          <mxGeometry relative="1" as="geometry" />
        </mxCell>
        <mxCell id="XuAN8jisEqfrrQAx59qb-2" value="&lt;div&gt;在线&lt;/div&gt;&lt;div&gt;？&lt;br&gt;&lt;/div&gt;" style="rhombus;whiteSpace=wrap;html=1;" vertex="1" parent="1">
          <mxGeometry x="360" y="240" width="80" height="80" as="geometry" />
        </mxCell>
        <mxCell id="XuAN8jisEqfrrQAx59qb-12" style="edgeStyle=orthogonalEdgeStyle;rounded=0;orthogonalLoop=1;jettySize=auto;html=1;exitX=1;exitY=0.5;exitDx=0;exitDy=0;entryX=0;entryY=0.25;entryDx=0;entryDy=0;" edge="1" parent="1" source="XuAN8jisEqfrrQAx59qb-4" target="XuAN8jisEqfrrQAx59qb-11">
          <mxGeometry relative="1" as="geometry" />
        </mxCell>
        <mxCell id="XuAN8jisEqfrrQAx59qb-4" value="&lt;div&gt;历史数据队列&lt;/div&gt;&lt;div&gt;x0704&lt;br&gt;&lt;/div&gt;" style="rounded=0;whiteSpace=wrap;html=1;" vertex="1" parent="1">
          <mxGeometry x="520" y="160" width="120" height="80" as="geometry" />
        </mxCell>
        <mxCell id="XuAN8jisEqfrrQAx59qb-13" style="edgeStyle=orthogonalEdgeStyle;rounded=0;orthogonalLoop=1;jettySize=auto;html=1;exitX=1;exitY=0.5;exitDx=0;exitDy=0;entryX=0;entryY=0.75;entryDx=0;entryDy=0;" edge="1" parent="1" source="XuAN8jisEqfrrQAx59qb-6" target="XuAN8jisEqfrrQAx59qb-11">
          <mxGeometry relative="1" as="geometry" />
        </mxCell>
        <mxCell id="XuAN8jisEqfrrQAx59qb-6" value="&lt;div&gt;实时数据队列&lt;/div&gt;&lt;div&gt;x0200&lt;br&gt;&lt;/div&gt;" style="rounded=0;whiteSpace=wrap;html=1;" vertex="1" parent="1">
          <mxGeometry x="520" y="320" width="120" height="80" as="geometry" />
        </mxCell>
        <mxCell id="XuAN8jisEqfrrQAx59qb-8" value="是" style="text;html=1;align=center;verticalAlign=middle;resizable=0;points=[];autosize=1;strokeColor=none;fillColor=none;" vertex="1" parent="1">
          <mxGeometry x="390" y="310" width="40" height="30" as="geometry" />
        </mxCell>
        <mxCell id="XuAN8jisEqfrrQAx59qb-9" value="否" style="text;html=1;align=center;verticalAlign=middle;resizable=0;points=[];autosize=1;strokeColor=none;fillColor=none;" vertex="1" parent="1">
          <mxGeometry x="390" y="215" width="40" height="30" as="geometry" />
        </mxCell>
        <mxCell id="XuAN8jisEqfrrQAx59qb-15" value="" style="edgeStyle=orthogonalEdgeStyle;rounded=0;orthogonalLoop=1;jettySize=auto;html=1;" edge="1" parent="1" source="XuAN8jisEqfrrQAx59qb-11" target="XuAN8jisEqfrrQAx59qb-14">
          <mxGeometry relative="1" as="geometry" />
        </mxCell>
        <mxCell id="XuAN8jisEqfrrQAx59qb-11" value="上报队列" style="rounded=0;whiteSpace=wrap;html=1;" vertex="1" parent="1">
          <mxGeometry x="760" y="240" width="80" height="80" as="geometry" />
        </mxCell>
        <mxCell id="XuAN8jisEqfrrQAx59qb-16" style="edgeStyle=orthogonalEdgeStyle;rounded=0;orthogonalLoop=1;jettySize=auto;html=1;exitX=0.5;exitY=0;exitDx=0;exitDy=0;entryX=0.5;entryY=0;entryDx=0;entryDy=0;" edge="1" parent="1" source="XuAN8jisEqfrrQAx59qb-14" target="XuAN8jisEqfrrQAx59qb-4">
          <mxGeometry relative="1" as="geometry" />
        </mxCell>
        <mxCell id="XuAN8jisEqfrrQAx59qb-19" value="" style="edgeStyle=orthogonalEdgeStyle;rounded=0;orthogonalLoop=1;jettySize=auto;html=1;" edge="1" parent="1" source="XuAN8jisEqfrrQAx59qb-14" target="XuAN8jisEqfrrQAx59qb-18">
          <mxGeometry relative="1" as="geometry" />
        </mxCell>
        <mxCell id="XuAN8jisEqfrrQAx59qb-14" value="&lt;div&gt;收到应答&lt;/div&gt;&lt;div&gt;？&lt;br&gt;&lt;/div&gt;" style="rhombus;whiteSpace=wrap;html=1;rounded=0;" vertex="1" parent="1">
          <mxGeometry x="920" y="240" width="80" height="80" as="geometry" />
        </mxCell>
        <mxCell id="XuAN8jisEqfrrQAx59qb-17" value="否" style="text;html=1;align=center;verticalAlign=middle;resizable=0;points=[];autosize=1;strokeColor=none;fillColor=none;" vertex="1" parent="1">
          <mxGeometry x="950" y="215" width="40" height="30" as="geometry" />
        </mxCell>
        <mxCell id="XuAN8jisEqfrrQAx59qb-20" style="edgeStyle=orthogonalEdgeStyle;rounded=0;orthogonalLoop=1;jettySize=auto;html=1;exitX=0;exitY=0.5;exitDx=0;exitDy=0;entryX=0.5;entryY=1;entryDx=0;entryDy=0;" edge="1" parent="1" source="XuAN8jisEqfrrQAx59qb-18" target="XuAN8jisEqfrrQAx59qb-11">
          <mxGeometry relative="1" as="geometry" />
        </mxCell>
        <mxCell id="XuAN8jisEqfrrQAx59qb-18" value="出队" style="whiteSpace=wrap;html=1;rounded=0;" vertex="1" parent="1">
          <mxGeometry x="920" y="360" width="80" height="80" as="geometry" />
        </mxCell>
        <mxCell id="XuAN8jisEqfrrQAx59qb-21" value="是" style="text;html=1;align=center;verticalAlign=middle;resizable=0;points=[];autosize=1;strokeColor=none;fillColor=none;" vertex="1" parent="1">
          <mxGeometry x="950" y="310" width="40" height="30" as="geometry" />
        </mxCell>
      </root>
    </mxGraphModel>
  </diagram>
</mxfile>
